<svg width="1280" height="620" xmlns="http://www.w3.org/2000/svg" xmlns:xlink="http://www.w3.org/1999/xlink" overflow="hidden"><defs><clipPath id="clip0"><rect x="0" y="0" width="1280" height="620"/></clipPath></defs><g clip-path="url(#clip0)"><rect x="0" y="0" width="1280" height="620.167" fill="#FFFFFF"/><text font-family="NanumSquare ExtraBold,NanumSquare ExtraBold_MSFontService,sans-serif" font-weight="800" font-size="13.3369" transform="matrix(1 0 0 1.00027 1140.29 229)">ONNX</text><text fill="#7F7F7F" font-family="NanumSquare ExtraBold,NanumSquare ExtraBold_MSFontService,sans-serif" font-style="oblique" font-weight="800" font-size="13.3369" transform="matrix(1 0 0 1.00027 1142.16 524)">TensorRT</text><text font-family="NanumSquare ExtraBold,NanumSquare ExtraBold_MSFontService,sans-serif" font-weight="800" font-size="13.3369" transform="matrix(1 0 0 1.00027 1140.3 365)">DMatrix</text><path d="M282.5 72.853C282.5 81.876 253.846 89.1907 218.5 89.1907 183.154 89.1907 154.5 81.876 154.5 72.853" stroke="#000000" stroke-width="1.33333" stroke-miterlimit="8" fill="none" fill-rule="evenodd"/><path d="M154.5 72.853C154.5 63.8299 183.154 56.5152 218.5 56.5152 253.846 56.5152 282.5 63.8299 282.5 72.853L282.5 138.204C282.5 147.227 253.846 154.542 218.5 154.542 183.154 154.542 154.5 147.227 154.5 138.204Z" stroke="#000000" stroke-width="1.33333" stroke-miterlimit="8" fill="none" fill-rule="evenodd"/><path d="M154.5 193.885C154.5 184.862 183.154 177.548 218.5 177.548 253.846 177.548 282.5 184.862 282.5 193.885L282.5 259.236C282.5 268.259 253.846 275.574 218.5 275.574 183.154 275.574 154.5 268.259 154.5 259.236Z" fill="#D9EAD1" fill-rule="evenodd"/><path d="M282.5 193.885C282.5 202.909 253.846 210.223 218.5 210.223 183.154 210.223 154.5 202.909 154.5 193.885" stroke="#000000" stroke-width="1.33333" stroke-miterlimit="8" fill="none" fill-rule="evenodd"/><path d="M154.5 193.885C154.5 184.862 183.154 177.548 218.5 177.548 253.846 177.548 282.5 184.862 282.5 193.885L282.5 259.236C282.5 268.259 253.846 275.574 218.5 275.574 183.154 275.574 154.5 268.259 154.5 259.236Z" stroke="#000000" stroke-width="1.33333" stroke-miterlimit="8" fill="none" fill-rule="evenodd"/><rect x="325.5" y="177.548" width="128" height="97.0261" stroke="#000000" stroke-width="1.33333" stroke-miterlimit="8" fill="#FEE5CD"/><rect x="475.5" y="177.548" width="131" height="97.0261" stroke="#000000" stroke-width="1.33333" stroke-miterlimit="8" fill="#FEE5CD"/><rect x="779.5" y="177.548" width="129" height="97.0261" stroke="#000000" stroke-width="1.33333" stroke-miterlimit="8" fill="#FEE5CD"/><rect x="629.5" y="177.548" width="128" height="97.0261" stroke="#000000" stroke-width="1.33333" stroke-miterlimit="8" fill="#FEE5CD"/><rect x="325.5" y="57.5155" width="583" height="97.0261" stroke="#000000" stroke-width="1.33333" stroke-miterlimit="8" fill="#D9EAD1"/><path d="M995.5 188.884C995.5 179.861 1024.15 172.546 1059.5 172.546 1094.85 172.546 1123.5 179.861 1123.5 188.884L1123.5 254.235C1123.5 263.258 1094.85 270.573 1059.5 270.573 1024.15 270.573 995.5 263.258 995.5 254.235Z" fill="#C9DAFA" fill-rule="evenodd"/><path d="M1123.5 188.884C1123.5 197.907 1094.85 205.222 1059.5 205.222 1024.15 205.222 995.5 197.907 995.5 188.884" stroke="#000000" stroke-width="1.33333" stroke-miterlimit="8" fill="none" fill-rule="evenodd"/><path d="M995.5 188.884C995.5 179.861 1024.15 172.546 1059.5 172.546 1094.85 172.546 1123.5 179.861 1123.5 188.884L1123.5 254.235C1123.5 263.258 1094.85 270.573 1059.5 270.573 1024.15 270.573 995.5 263.258 995.5 254.235Z" stroke="#000000" stroke-width="1.33333" stroke-miterlimit="8" fill="none" fill-rule="evenodd"/><rect x="475.5" y="313.584" width="131" height="97.0261" stroke="#000000" stroke-width="1.33333" stroke-miterlimit="8" fill="#FEE5CD"/><rect x="628.5" y="313.584" width="131" height="97.0261" stroke="#000000" stroke-width="1.33333" stroke-miterlimit="8" fill="#C9DAFA"/><rect x="994.5" y="313.584" width="131" height="97.0261" stroke="#000000" stroke-width="1.33333" stroke-miterlimit="8" fill="#F6CCCE"/><rect x="995.5" y="467.626" width="131" height="97.0261" stroke="#000000" stroke-width="1.33333" stroke-miterlimit="8" fill="none"/><path d="M325.5 480.963C325.5 471.94 354.154 464.625 389.5 464.625 424.846 464.625 453.5 471.94 453.5 480.963L453.5 546.314C453.5 555.337 424.846 562.651 389.5 562.651 354.154 562.651 325.5 555.337 325.5 546.314Z" fill="#FFF3CD" fill-rule="evenodd"/><path d="M453.5 480.963C453.5 489.986 424.846 497.3 389.5 497.3 354.154 497.3 325.5 489.986 325.5 480.963" stroke="#000000" stroke-width="1.33333" stroke-miterlimit="8" fill="none" fill-rule="evenodd"/><path d="M325.5 480.963C325.5 471.94 354.154 464.625 389.5 464.625 424.846 464.625 453.5 471.94 453.5 480.963L453.5 546.314C453.5 555.337 424.846 562.651 389.5 562.651 354.154 562.651 325.5 555.337 325.5 546.314Z" stroke="#000000" stroke-width="1.33333" stroke-miterlimit="8" fill="none" fill-rule="evenodd"/><text fill="#7F7F7F" font-family="NanumSquare ExtraBold,NanumSquare ExtraBold_MSFontService,sans-serif" font-weight="800" font-size="16.0043" transform="matrix(1 0 0 1.00027 188.52 112)">Hadoop</text><text fill="#7F7F7F" font-family="NanumSquare ExtraBold,NanumSquare ExtraBold_MSFontService,sans-serif" font-weight="800" font-size="16.0043" transform="matrix(1 0 0 1.00027 195.686 131)">Spark</text><text font-family="NanumSquare ExtraBold,NanumSquare ExtraBold_MSFontService,sans-serif" font-weight="800" font-size="16.0043" transform="matrix(1 0 0 1.00027 176.643 235)">GPU Direct</text><text font-family="NanumSquare ExtraBold,NanumSquare ExtraBold_MSFontService,sans-serif" font-weight="800" font-size="16.0043" transform="matrix(1 0 0 1.00027 187.563 254)">Storage</text><text font-family="NanumSquare ExtraBold,NanumSquare ExtraBold_MSFontService,sans-serif" font-weight="800" font-size="16.0043" transform="matrix(1 0 0 1.00027 372.034 221)">Data</text><text font-family="NanumSquare ExtraBold,NanumSquare ExtraBold_MSFontService,sans-serif" font-weight="800" font-size="16.0043" transform="matrix(1 0 0 1.00027 343.947 240)">Preparation</text><text font-family="NanumSquare ExtraBold,NanumSquare ExtraBold_MSFontService,sans-serif" font-weight="800" font-size="16.0043" transform="matrix(1 0 0 1.00027 517.828 223)">Model</text><text font-family="NanumSquare ExtraBold,NanumSquare ExtraBold_MSFontService,sans-serif" font-weight="800" font-size="16.0043" transform="matrix(1 0 0 1.00027 509.768 242)">Training</text><text font-family="NanumSquare ExtraBold,NanumSquare ExtraBold_MSFontService,sans-serif" font-weight="800" font-size="16.0043" transform="matrix(1 0 0 1.00027 670.534 221)">Model</text><text font-family="NanumSquare ExtraBold,NanumSquare ExtraBold_MSFontService,sans-serif" font-weight="800" font-size="16.0043" transform="matrix(1 0 0 1.00027 653.367 240)">Evaluation</text><text font-family="NanumSquare ExtraBold,NanumSquare ExtraBold_MSFontService,sans-serif" font-weight="800" font-size="16.0043" transform="matrix(1 0 0 1.00027 820.652 221)">Model</text><text font-family="NanumSquare ExtraBold,NanumSquare ExtraBold_MSFontService,sans-serif" font-weight="800" font-size="16.0043" transform="matrix(1 0 0 1.00027 805.092 240)">Validation</text><text font-family="NanumSquare ExtraBold,NanumSquare ExtraBold_MSFontService,sans-serif" font-weight="800" font-size="16.0043" transform="matrix(1 0 0 1.00027 534.51 100)">Interactive Notebook</text><text font-family="NanumSquare ExtraBold,NanumSquare ExtraBold_MSFontService,sans-serif" font-weight="800" font-size="16.0043" transform="matrix(1 0 0 1.00027 564.89 119)">(</text><text font-family="NanumSquare ExtraBold,NanumSquare ExtraBold_MSFontService,sans-serif" font-weight="800" font-size="16.0043" transform="matrix(1 0 0 1.00027 570.724 119)">Jupyter</text><text font-family="NanumSquare ExtraBold,NanumSquare ExtraBold_MSFontService,sans-serif" font-weight="800" font-size="16.0043" transform="matrix(1 0 0 1.00027 634.224 119)">Lab)</text><text font-family="NanumSquare ExtraBold,NanumSquare ExtraBold_MSFontService,sans-serif" font-weight="800" font-size="16.0043" transform="matrix(1 0 0 1.00027 351.536 528)">Workflow</text><path d="M303.5 479.962C303.5 488.986 274.846 496.3 239.5 496.3 204.154 496.3 175.5 488.986 175.5 479.962" stroke="#000000" stroke-width="1.33333" stroke-miterlimit="8" fill="none" fill-rule="evenodd"/><path d="M175.5 479.962C175.5 470.939 204.154 463.625 239.5 463.625 274.846 463.625 303.5 470.939 303.5 479.962L303.5 545.313C303.5 554.336 274.846 561.651 239.5 561.651 204.154 561.651 175.5 554.336 175.5 545.313Z" stroke="#000000" stroke-width="1.33333" stroke-miterlimit="8" fill="none" fill-rule="evenodd"/><text fill="#7F7F7F" font-family="NanumSquare ExtraBold,NanumSquare ExtraBold_MSFontService,sans-serif" font-weight="800" font-size="16.0043" transform="matrix(1 0 0 1.00027 208.765 518)">Feature</text><text fill="#7F7F7F" font-family="NanumSquare ExtraBold,NanumSquare ExtraBold_MSFontService,sans-serif" font-weight="800" font-size="16.0043" transform="matrix(1 0 0 1.00027 217.765 537)">Store</text><text font-family="NanumSquare ExtraBold,NanumSquare ExtraBold_MSFontService,sans-serif" font-weight="800" font-size="16.0043" transform="matrix(1 0 0 1.00027 1036.65 231)">Model</text><text font-family="NanumSquare ExtraBold,NanumSquare ExtraBold_MSFontService,sans-serif" font-weight="800" font-size="16.0043" transform="matrix(1 0 0 1.00027 1027.66 250)">Registry</text><text font-family="NanumSquare ExtraBold,NanumSquare ExtraBold_MSFontService,sans-serif" font-weight="800" font-size="16.0043" transform="matrix(1 0 0 1.00027 1034.3 357)">Model</text><text font-family="NanumSquare ExtraBold,NanumSquare ExtraBold_MSFontService,sans-serif" font-weight="800" font-size="16.0043" transform="matrix(1 0 0 1.00027 1020.65 376)">Inference</text><text font-family="NanumSquare ExtraBold,NanumSquare ExtraBold_MSFontService,sans-serif" font-weight="800" font-size="16.0043" transform="matrix(1 0 0 1.00027 512.161 367)">ML Libs</text><text font-family="NanumSquare ExtraBold,NanumSquare ExtraBold_MSFontService,sans-serif" font-weight="800" font-size="16.0043" transform="matrix(1 0 0 1.00027 640.918 357)">Performance</text><text font-family="NanumSquare ExtraBold,NanumSquare ExtraBold_MSFontService,sans-serif" font-weight="800" font-size="16.0043" transform="matrix(1 0 0 1.00027 648.844 376)">Monitoring</text><text fill="#7F7F7F" font-family="NanumSquare ExtraBold,NanumSquare ExtraBold_MSFontService,sans-serif" font-weight="800" font-size="16.0043" transform="matrix(1 0 0 1.00027 1020.19 517)">Prediction</text><text fill="#7F7F7F" font-family="NanumSquare ExtraBold,NanumSquare ExtraBold_MSFontService,sans-serif" font-weight="800" font-size="16.0043" transform="matrix(1 0 0 1.00027 1031.65 536)">Service</text><path d="M0.00552934-0.666644 4.00539-0.633468 3.99433 0.69982-0.00552934 0.666644ZM5.33868-0.622409 9.33854-0.589233 9.32748 0.744054 5.32762 0.710878ZM10.6718-0.578174 14.6717-0.544998 14.6606 0.788289 10.6608 0.755113ZM16.005-0.53394 20.0048-0.500764 19.9938 0.832524 15.9939 0.799348ZM21.3381-0.489705 25.338-0.456529 25.3269 0.876759 21.3271 0.843582ZM26.6713-0.44547 30.6711-0.412294 30.6601 0.920993 26.6602 0.887817ZM32.0044-0.401236 35.6918-0.370651 35.6808 0.962636 31.9934 0.932052ZM34.3862-3.71493 42.3528 0.351286 34.3199 4.2848Z" transform="matrix(1 0 0 -1.00027 282.5 105.88)"/><path d="M0.0071659-0.666628 37.1055-0.267841 37.0912 1.06542-0.0071659 0.666628ZM35.8081-3.61531 43.7646 0.470446 35.7221 4.38422Z" transform="matrix(1 0 0 -1.00027 282.5 226.031)"/><path d="M0.666667-3.67068e-07 0.666768 184.01-0.666565 184.01-0.666667 3.67068e-07ZM4.0001 182.677 0.000104987 190.677-3.9999 182.677Z" transform="matrix(1 0 0 -1.00027 389.5 465.302)"/><path d="M863.5 520.973 867.5 520.973 867.5 522.307 863.5 522.307ZM868.833 520.973 872.833 520.973 872.833 522.307 868.833 522.307ZM874.167 520.973 878.167 520.973 878.167 522.307 874.167 522.307ZM879.5 520.973 883.5 520.973 883.5 522.307 879.5 522.307ZM884.833 520.973 888.833 520.973 888.833 522.307 884.833 522.307ZM890.167 520.973 894.167 520.973 894.167 522.307 890.167 522.307ZM895.5 520.973 899.5 520.973 899.5 522.307 895.5 522.307ZM900.833 520.973 904.833 520.973 904.833 522.307 900.833 522.307ZM906.167 520.973 910.167 520.973 910.167 522.307 906.167 522.307ZM911.5 520.973 915.5 520.973 915.5 522.307 911.5 522.307ZM916.833 520.973 920.833 520.973 920.833 522.307 916.833 522.307ZM922.167 520.973 926.167 520.973 926.167 522.307 922.167 522.307ZM927.5 520.973 931.5 520.973 931.5 522.307 927.5 522.307ZM932.833 520.973 936.833 520.973 936.833 522.307 932.833 522.307ZM938.167 520.973 942.167 520.973 942.167 522.307 938.167 522.307ZM943.5 520.973 947.5 520.973 947.5 522.307 943.5 522.307ZM948.833 520.974 952.833 520.974 952.833 522.307 948.833 522.307ZM954.167 520.974 958.167 520.974 958.167 522.307 954.167 522.307ZM959.5 520.974 963.5 520.974 963.5 522.307 959.5 522.307ZM964.833 520.974 968.833 520.974 968.833 522.307 964.833 522.307ZM970.167 520.974 974.167 520.974 974.167 522.307 970.167 522.307ZM975.5 520.974 979.5 520.974 979.5 522.307 975.5 522.307ZM980.833 520.974 984.833 520.974 984.833 522.307 980.833 522.307ZM986.167 520.974 988.598 520.974 988.598 522.307 986.167 522.307ZM987.265 517.639 995.265 521.64 987.265 525.641Z"/><path d="M454.5 224.894 469.01 224.894 469.01 226.228 454.5 226.228ZM467.677 221.56 475.677 225.561 467.676 229.562Z"/><path d="M608.5 226.894 623.01 226.895 623.01 228.228 608.5 228.228ZM621.677 223.56 629.677 227.562 621.676 231.563Z"/><path d="M758.5 226.894 773.01 226.895 773.01 228.228 758.5 228.228ZM771.677 223.56 779.677 227.562 771.676 231.563Z"/><path d="M8.21721e-07-0.666667 78.5097-0.66657 78.5097 0.666763-8.21721e-07 0.666667ZM77.1764-3.9999 85.1764 0.000104987 77.1764 4.00009Z" transform="matrix(1 0 0 -1.00027 908.5 225.561)"/><path d="M0.666667-1.76798e-06 0.666754 32.9217-0.666579 32.9217-0.666667 1.76798e-06ZM4.00008 31.5883 0.000104987 39.5883-3.99992 31.5884Z" transform="matrix(1 0 0 -1.00027 541.5 314.173)"/><path d="M694.246 281.234 694.558 307.497 693.225 307.513 692.913 281.25ZM689.595 282.623 693.5 274.574 697.595 282.528ZM697.875 306.124 693.971 314.173 689.876 306.219Z"/><path d="M908.5 105.528 949.911 105.528 949.911 225.912" stroke="#000000" stroke-width="1.33333" stroke-miterlimit="8" fill="none" fill-rule="evenodd"/><path d="M303.5 105.528 303.5 225.912" stroke="#000000" stroke-width="1.33333" stroke-linecap="square" stroke-miterlimit="8" stroke-dasharray="4 1.33333" fill="none" fill-rule="evenodd"/><path d="M0 0 9.41197 0 9.41197 134.415" stroke="#000000" stroke-width="1.33333" stroke-miterlimit="8" fill="none" fill-rule="evenodd" transform="matrix(1 0 0 -1.00027 606.5 362.012)"/><path d="M1060.17 270.566 1060.56 307.262 1059.23 307.277 1058.83 270.58ZM1063.88 305.892 1059.97 313.937 1055.88 305.979Z"/><path d="M1061.17 409.605 1061.2 413.606 1059.87 413.617 1059.83 409.616ZM1061.21 414.939 1061.24 418.94 1059.91 418.951 1059.88 414.95ZM1061.25 420.274 1061.29 424.275 1059.95 424.286 1059.92 420.285ZM1061.3 425.609 1061.33 429.609 1060 429.62 1059.96 425.619ZM1061.34 430.943 1061.37 434.944 1060.04 434.955 1060.01 430.954ZM1061.38 436.278 1061.41 440.279 1060.08 440.289 1060.05 436.289ZM1061.43 441.612 1061.46 445.613 1060.12 445.624 1060.09 441.623ZM1061.47 446.947 1061.5 450.948 1060.17 450.959 1060.14 446.958ZM1061.51 452.282 1061.54 456.282 1060.21 456.293 1060.18 452.292ZM1061.56 457.616 1061.58 461.114 1060.25 461.124 1060.22 457.627ZM1064.91 459.753 1060.97 467.787 1056.91 459.818Z"/><path d="M239.5 463.536 239.5 372.6 389.147 372.6" stroke="#000000" stroke-width="1.33369" stroke-linecap="square" stroke-miterlimit="8" stroke-dasharray="4.00108 1.33369" fill="none" fill-rule="evenodd"/><text font-family="NanumSquare ExtraBold,NanumSquare ExtraBold_MSFontService,sans-serif" font-weight="800" font-size="13.3369" transform="matrix(1 0 0 1.00027 275.789 364)">Offline Feature</text><text fill="#7F7F7F" font-family="NanumSquare ExtraBold,NanumSquare ExtraBold_MSFontService,sans-serif" font-weight="800" font-size="13.3369" transform="matrix(1 0 0 1.00027 676.014 544)">Online Feature</text><path d="M763.167 361.931 987.951 361.931 987.951 363.264 763.167 363.264ZM764.5 366.599 756.5 362.598 764.5 358.596ZM986.618 358.597 994.618 362.598 986.618 366.599Z"/><path d="M863.5 361.597 863.5 521.914" stroke="#000000" stroke-width="1.33333" stroke-miterlimit="8" fill="none" fill-rule="evenodd"/><text font-family="NanumSquare ExtraBold,NanumSquare ExtraBold_MSFontService,sans-serif" font-weight="800" font-size="13.3369" transform="matrix(1 0 0 1.00027 498.411 429)">NVDIA Merlin</text><text font-family="NanumSquare ExtraBold,NanumSquare ExtraBold_MSFontService,sans-serif" font-weight="800" font-size="13.3369" transform="matrix(1 0 0 1.00027 513.578 445)">XGBoost</text><path d="M0 0 410.353 1.3073" stroke="#000000" stroke-width="1.33333" stroke-miterlimit="8" fill="none" fill-rule="evenodd" transform="matrix(1 0 0 -1.00027 453.5 522.948)"/><text font-family="NanumSquare ExtraBold,NanumSquare ExtraBold_MSFontService,sans-serif" font-weight="800" font-size="13.3369" transform="matrix(1 0 0 1.00027 780.47 291)">Stratified k</text><text font-family="NanumSquare ExtraBold,NanumSquare ExtraBold_MSFontService,sans-serif" font-weight="800" font-size="13.3369" transform="matrix(1 0 0 1.00027 853.47 291)">-</text><text font-family="NanumSquare ExtraBold,NanumSquare ExtraBold_MSFontService,sans-serif" font-weight="800" font-size="13.3369" transform="matrix(1 0 0 1.00027 859.137 291)">Fold CV</text><text font-family="NanumSquare ExtraBold,NanumSquare ExtraBold_MSFontService,sans-serif" font-weight="800" font-size="13.3369" transform="matrix(1 0 0 1.00027 290.235 317)">NVTabular</text><text font-family="NanumSquare ExtraBold,NanumSquare ExtraBold_MSFontService,sans-serif" font-weight="800" font-size="13.3369" transform="matrix(1 0 0 1.00027 290.315 333)">Streaming</text><text fill="#7F7F7F" font-family="NanumSquare ExtraBold,NanumSquare ExtraBold_MSFontService,sans-serif" font-weight="800" font-size="13.3369" transform="matrix(1 0 0 1.00027 668.122 428)">MLFlow</text><text fill="#7F7F7F" font-family="NanumSquare ExtraBold,NanumSquare ExtraBold_MSFontService,sans-serif" font-weight="800" font-size="13.3369" transform="matrix(1 0 0 1.00027 677.122 444)">W&amp;B</text><text font-family="NanumSquare ExtraBold,NanumSquare ExtraBold_MSFontService,sans-serif" font-weight="800" font-size="13.9904" transform="matrix(1 0 0 1.00027 473.23 45)">Docker Containerized GPU ML Environment</text><text font-family="NanumSquare ExtraBold,NanumSquare ExtraBold_MSFontService,sans-serif" font-weight="800" font-size="13.3369" transform="matrix(1 0 0 1.00027 357.058 584)">NVTabular</text></g></svg>